<svg xmlns="http://www.w3.org/2000/svg" viewBox="0 0 1200 800" role="img" aria-label="Abstract overlaminate technical film roll">
  <defs>
    <linearGradient id="paper" x1="0" y1="0" x2="1" y2="1">
      <stop stop-color="#ffffff"/>
      <stop offset="1" stop-color="#d8ecf7"/>
    </linearGradient>
    <linearGradient id="laminate" x1="0" y1="0" x2="1" y2="0">
      <stop stop-color="#0c4c80"/>
      <stop offset=".22" stop-color="#7bc5df"/>
      <stop offset=".48" stop-color="#ffffff"/>
      <stop offset=".74" stop-color="#4f9dc6"/>
      <stop offset="1" stop-color="#113f70"/>
    </linearGradient>
    <linearGradient id="sheet" x1="0" y1="0" x2="1" y2="1">
      <stop stop-color="#fff" stop-opacity=".9"/>
      <stop offset="1" stop-color="#78bedb" stop-opacity=".32"/>
    </linearGradient>
  </defs>
  <rect width="1200" height="800" fill="url(#paper)"/>
  <path d="M0 128h1200M0 266h1200M0 404h1200M0 542h1200M0 680h1200" stroke="#0d5b91" stroke-opacity=".11" stroke-width="2"/>
  <path d="M90 130 845 75l205 198-750 55Z" fill="url(#sheet)" stroke="#1e6d9d" stroke-opacity=".26" stroke-width="5"/>
  <path d="M145 232 902 177l185 190-754 59Z" fill="url(#sheet)" stroke="#1e6d9d" stroke-opacity=".34" stroke-width="5"/>
  <g transform="rotate(-6 620 510)">
    <rect x="250" y="382" width="650" height="258" rx="129" fill="url(#laminate)" stroke="#164f7a" stroke-width="8"/>
    <ellipse cx="900" cy="511" rx="129" ry="129" fill="#dff5fc" stroke="#164f7a" stroke-width="8"/>
    <ellipse cx="900" cy="511" rx="67" ry="67" fill="#548fb3" stroke="#fff" stroke-width="15"/>
    <ellipse cx="900" cy="511" rx="29" ry="29" fill="#164f7a"/>
    <path d="M292 451h505" stroke="#fff" stroke-opacity=".7" stroke-width="14" stroke-linecap="round"/>
  </g>
  <path d="M96 624h258" stroke="#58c4d2" stroke-width="20" stroke-linecap="round"/>
  <path d="M96 668h156" stroke="#0e5d92" stroke-opacity=".55" stroke-width="8" stroke-linecap="round"/>
</svg>
